<?xml version="1.0" encoding="UTF-8" standalone="no"?>
<svg
   xmlns:dc="http://purl.org/dc/elements/1.1/"
   xmlns:cc="http://creativecommons.org/ns#"
   xmlns:rdf="http://www.w3.org/1999/02/22-rdf-syntax-ns#"
   xmlns:svg="http://www.w3.org/2000/svg"
   xmlns="http://www.w3.org/2000/svg"
   version="1.1"
   width="16"
   height="16"
   id="svg3049">
  <defs
     id="defs3051">
    <style
       type="text/css"
       id="current-color-scheme">.ColorScheme-Text {
        color:#4d4d4d;
      }
      .ColorScheme-Background {
        color:#eff0f1;
      }
      .ColorScheme-Highlight {
        color:#3daee9;
      }
      .ColorScheme-ViewText {
        color:#31363b;
      }
      .ColorScheme-ViewBackground {
        color:#fcfcfc;
      }
      .ColorScheme-ViewHover {
        color:#93cee9;
      }
      .ColorScheme-ViewFocus{
        color:#3daee9;
      }
      .ColorScheme-ButtonText {
        color:#31363b;
      }
      .ColorScheme-ButtonBackground {
        color:#eff0f1;
      }
      .ColorScheme-ButtonHover {
        color:#93cee9;
      }
      .ColorScheme-ButtonFocus{
        color:#3daee9;
      }</style>
  </defs>
  <metadata
     id="metadata3054">
    <rdf:RDF>
      <cc:Work
         rdf:about="">
        <dc:format>image/svg+xml</dc:format>
        <dc:type
           rdf:resource="http://purl.org/dc/dcmitype/StillImage" />
        <dc:title />
      </cc:Work>
    </rdf:RDF>
  </metadata>
  <path
     id="rect6699-7-6-4-5"
     style="color:#4d4d4d;opacity:1;fill:#414c52;fill-opacity:1"
     d="m 1,1 0,14 2,0 6,0 1,0 3,0 2,0 L 15,1 1,1 Z m 2,2 2,0 0,2 2,0 0,-2 2,0 0,2 2,0 0,-2 1,0 1,0 0,2 L 11.656,5 11,5 11,7 11.656,7 13,7 l 0,2 -1,0 -1,0 0,2 1,0 1,0 0,2 -1,0 -1,0 0,-2 -2,0 0,2 -2,0 0,-2 -2,0 0,2 -2,0 0,-2 2,0 L 5,9 3,9 3,7 5,7 5,5 3,5 3,3 Z m 4,8 0,-6 -2,3 2,3 z m 2,0 2,-3 -2,-3 0,6 z" />
</svg>
