<?xml version="1.0" encoding="UTF-8" standalone="no"?>
<svg
   xmlns:dc="http://purl.org/dc/elements/1.1/"
   xmlns:cc="http://creativecommons.org/ns#"
   xmlns:rdf="http://www.w3.org/1999/02/22-rdf-syntax-ns#"
   xmlns:svg="http://www.w3.org/2000/svg"
   xmlns="http://www.w3.org/2000/svg"
   version="1.1"
   width="16"
   height="16"
   id="svg3049">
  <defs
     id="defs3051">
    <style
       type="text/css"
       id="current-color-scheme">.ColorScheme-Text {
        color:#4d4d4d;
      }
      .ColorScheme-Background {
        color:#eff0f1;
      }
      .ColorScheme-Highlight {
        color:#3daee9;
      }
      .ColorScheme-ViewText {
        color:#31363b;
      }
      .ColorScheme-ViewBackground {
        color:#fcfcfc;
      }
      .ColorScheme-ViewHover {
        color:#93cee9;
      }
      .ColorScheme-ViewFocus{
        color:#3daee9;
      }
      .ColorScheme-ButtonText {
        color:#31363b;
      }
      .ColorScheme-ButtonBackground {
        color:#eff0f1;
      }
      .ColorScheme-ButtonHover {
        color:#93cee9;
      }
      .ColorScheme-ButtonFocus{
        color:#3daee9;
      }</style>
  </defs>
  <metadata
     id="metadata3054">
    <rdf:RDF>
      <cc:Work
         rdf:about="">
        <dc:format>image/svg+xml</dc:format>
        <dc:type
           rdf:resource="http://purl.org/dc/dcmitype/StillImage" />
        <dc:title />
      </cc:Work>
    </rdf:RDF>
  </metadata>
  <path
     id="path4141"
     style="color:#4d4d4d;text-indent:0;text-decoration:none;text-decoration-line:none;text-decoration-style:solid;text-decoration-color:#eeefef;text-transform:none;block-progression:tb;white-space:normal;opacity:1;isolation:auto;mix-blend-mode:normal;solid-color:#eeefef;color-rendering:auto;image-rendering:auto;shape-rendering:auto;fill:#eeefef;fill-opacity:1"
     d="M 3.5,1 C 2.131,1 1,2.1312 1,3.5 L 1,3.502 C 1.001,4.2648 1.4294,4.8839 2,5.3496 L 2,9 2,11 c 0,1.645 1.3548,3 3,3 -2e-4,0.564 0.4656,1.016 1.0293,1 0.2061,-0.006 0.4053,-0.076 0.5703,-0.199 l 2,-1.5 c 0.533,-0.4 0.533,-1.2 0,-1.6 l -2,-1.5 C 5.9458,9.7114 5.0125,10.17 5,10.986 L 5,9 5,5.3496 C 5.5709,4.8839 5.9989,4.265 6,3.502 L 6,3.5 C 6,2.1312 4.869,1 3.5,1 Z M 9.9707,1 C 9.7646,1.006 9.5654,1.0756 9.4004,1.1992 l -2,1.5 c -0.533,0.4001 -0.533,1.1996 0,1.5996 l 2,1.5 C 10.054,6.2886 10.988,5.8304 11,5.0137 L 11,7 l 0,3.65 c -0.571,0.466 -0.999,1.085 -1,1.848 l 0,0.002 c 0,1.369 1.131,2.5 2.5,2.5 1.369,0 2.5,-1.131 2.5,-2.5 l 0,-0.002 C 14.999,11.735 14.571,11.116 14,10.65 L 14,7 14,5 C 14,3.355 12.645,2 11,2 11,1.4361 10.534,0.9835 9.9707,1 Z" />
</svg>
