<?xml version="1.0" encoding="UTF-8" standalone="no"?>
<svg
   xmlns:dc="http://purl.org/dc/elements/1.1/"
   xmlns:cc="http://creativecommons.org/ns#"
   xmlns:rdf="http://www.w3.org/1999/02/22-rdf-syntax-ns#"
   xmlns:svg="http://www.w3.org/2000/svg"
   xmlns="http://www.w3.org/2000/svg"
   id="svg7384"
   style="enable-background:new"
   height="16"
   width="16"
   version="1.1">
  <defs
     id="defs9" />
  <metadata
     id="metadata90">
    <rdf:RDF>
      <cc:Work
         rdf:about="">
        <dc:format>image/svg+xml</dc:format>
        <dc:type
           rdf:resource="http://purl.org/dc/dcmitype/StillImage" />
        <dc:title>Paper Symbolic Icon Theme</dc:title>
      </cc:Work>
    </rdf:RDF>
  </metadata>
  <title
     id="title8473">Paper Symbolic Icon Theme</title>
  <path
     style="opacity:1;fill:#eeefef;fill-opacity:1;stroke:none;stroke-width:2;stroke-linecap:round;stroke-linejoin:round;stroke-miterlimit:4;stroke-dasharray:none;stroke-opacity:1"
     d="M 1,1 C 0.446,1 0,1.446 0,2 l 0,12 c 0,0.554 0.446,1 1,1 l 14,0 c 0.554,0 1,-0.446 1,-1 L 16,2 C 16,1.446 15.554,1 15,1 Z m 8,1 1,0 0,12 -1,0 z M 1,3 3,3 3,5 1,5 Z M 5,3 7,3 7,5 5,5 Z m 7,0 2,0 0,1 -2,0 z m 0,3 2,0 0,1 -2,0 z M 1,7 3,7 3,9 1,9 Z M 5,7 7,7 7,9 5,9 Z m 7,2 2,0 0,1 -2,0 z m -11,2 2,0 0,2 -2,0 z m 4,0 2,0 0,2 -2,0 z m 7,1 2,0 0,1 -2,0 z"
     id="rect4137" />
</svg>
