<?xml version="1.0" encoding="UTF-8" standalone="no"?>
<svg
   xmlns:dc="http://purl.org/dc/elements/1.1/"
   xmlns:cc="http://creativecommons.org/ns#"
   xmlns:rdf="http://www.w3.org/1999/02/22-rdf-syntax-ns#"
   xmlns:svg="http://www.w3.org/2000/svg"
   xmlns="http://www.w3.org/2000/svg"
   version="1.1"
   width="16"
   height="16"
   style="enable-background:new"
   id="svg7384">
  <defs
     id="defs9" />
  <metadata
     id="metadata90">
    <rdf:RDF>
      <cc:Work
         rdf:about="">
        <dc:format>image/svg+xml</dc:format>
        <dc:type
           rdf:resource="http://purl.org/dc/dcmitype/StillImage" />
        <dc:title>Paper Symbolic Icon Theme</dc:title>
      </cc:Work>
    </rdf:RDF>
  </metadata>
  <title
     id="title8473">Paper Symbolic Icon Theme</title>
  <g
     transform="translate(-425 99.016)"
     id="layer12">
    <path
       id="path5865"
       transform="translate(425,-99.016)"
       d="M 8 1.015625 C 4.134 1.015625 1 4.149625 1 8.015625 L 3 8.015625 C 3 5.254225 5.2386 3.015625 8 3.015625 C 9.3816 3.015625 10.615525 3.59065 11.515625 4.5 L 9.0058594 7.015625 L 15.005859 7.015625 L 15.005859 1.015625 L 12.953125 3.0683594 C 11.683125 1.8033594 9.9339063 1.015625 8.0039062 1.015625 L 8 1.015625 z M 13.005859 8 C 13.005859 10.7614 10.767259 13 8.0058594 13 C 6.6242594 13 5.3903344 12.424975 4.4902344 11.515625 L 7 9 L 1 9 L 1 15 L 3.0527344 12.947266 C 4.3227344 14.212266 6.0719531 15 8.0019531 15 L 8.0058594 15 C 11.871859 15 15.005859 11.866 15.005859 8 L 13.005859 8 z "
       style="opacity:1;fill:#eeefef;fill-opacity:1" />
  </g>
  <g
     id="g4137"
     transform="matrix(-1,0,0,-1,441.0057,-83)" />
</svg>
