<?xml version="1.0" encoding="UTF-8" standalone="no"?>
<svg
   xmlns:dc="http://purl.org/dc/elements/1.1/"
   xmlns:cc="http://creativecommons.org/ns#"
   xmlns:rdf="http://www.w3.org/1999/02/22-rdf-syntax-ns#"
   xmlns:svg="http://www.w3.org/2000/svg"
   xmlns="http://www.w3.org/2000/svg"
   id="svg7384"
   style="enable-background:new"
   height="16"
   width="16"
   version="1.1">
  <defs
     id="defs9" />
  <metadata
     id="metadata90">
    <rdf:RDF>
      <cc:Work
         rdf:about="">
        <dc:format>image/svg+xml</dc:format>
        <dc:type
           rdf:resource="http://purl.org/dc/dcmitype/StillImage" />
        <dc:title>Paper Symbolic Icon Theme</dc:title>
      </cc:Work>
    </rdf:RDF>
  </metadata>
  <title
     id="title8473">Paper Symbolic Icon Theme</title>
  <path
     d="M 8,3.003 C 6.4492,3.0181 4.8879,3.37236 3.5371,4.1378 2.9987,4.48842 2.3523,4.94128 1.8652,5.3976 1.09871,6.14802 0.4427,7.0236 0,8.0031 c 1.2149,2.6796 3.8859,4.6435 6.8242,4.9336 1.9274,0.21811 3.9444,-0.11491 5.6387,-1.0684 0.5384,-0.35062 1.1848,-0.80348 1.6719,-1.2598 C 14.90129,9.85808 15.5573,8.9825 16,8.003 14.785,5.3236 12.1142,3.3592 9.1758,3.0694 8.78592,3.02393 8.39251,3.00298 8,3.00299 Z m 0,2 c 1.607,-0.0356 3.0303,1.4018 3,3 0.0515,1.7664 -1.709,3.2909 -3.4492,2.9609 C 5.7932,10.75756 4.5587,8.7861 5.1367,7.1162 5.50586,5.8868 6.7125,4.9876 8,5.0029 Z m 0,2 a 1,1 0 0 0 -1,1 1,1 0 0 0 1,1 1,1 0 0 0 1,-1 1,1 0 0 0 -1,-1 z"
     id="path6807"
     style="opacity:1;fill-rule:evenodd;fill:#5c616c;fill-opacity:1" />
</svg>
