<?xml version="1.0" encoding="UTF-8" standalone="no"?>
<svg
   xmlns:dc="http://purl.org/dc/elements/1.1/"
   xmlns:cc="http://creativecommons.org/ns#"
   xmlns:rdf="http://www.w3.org/1999/02/22-rdf-syntax-ns#"
   xmlns:svg="http://www.w3.org/2000/svg"
   xmlns="http://www.w3.org/2000/svg"
   version="1.1"
   width="16"
   height="16"
   style="enable-background:new"
   id="svg7384">
  <defs
     id="defs9" />
  <metadata
     id="metadata90">
    <rdf:RDF>
      <cc:Work
         rdf:about="">
        <dc:format>image/svg+xml</dc:format>
        <dc:type
           rdf:resource="http://purl.org/dc/dcmitype/StillImage" />
        <dc:title>Paper Symbolic Icon Theme</dc:title>
      </cc:Work>
    </rdf:RDF>
  </metadata>
  <title
     id="title8473">Paper Symbolic Icon Theme</title>
  <path
     id="path8974"
     style="color:#6e6e6e;text-indent:0;text-decoration:none;text-decoration-line:none;text-transform:none;block-progression:tb;opacity:1;enable-background:accumulate;fill:#6e6e6e;fill-opacity:1"
     d="m 10.78,1 0.3125,0.28125 3.625,3.625 0.28125,0.3125 0,0.40625 0,4.75 0,0.40625 -0.28125,0.3125 -3.625,3.625 L 10.78,15 l -0.40625,0 -4.75,0 -0.40625,0 -0.3125,-0.28125 -3.625,-3.625 -0.28125,-0.3125 0,-0.40625 0,-4.75 0,-0.40625 L 1.28,4.90625 4.905,1.28125 5.2175,1 l 0.40625,0 4.75,0 0.40625,0 z m -0.78125,2 -4,0 -3,3 0,4 3,3 4,0 3,-3 0,-4 -3,-3 z m -0.4375,1 2.4375,2.4375 0,3.125 -2.4375,2.4375 -3.125,0 -2.4375,-2.4375 0,-3.125 L 6.43625,4 l 3.125,0 z" />
</svg>
