<?xml version="1.0" encoding="UTF-8" standalone="no"?>
<svg
   xmlns:dc="http://purl.org/dc/elements/1.1/"
   xmlns:cc="http://creativecommons.org/ns#"
   xmlns:rdf="http://www.w3.org/1999/02/22-rdf-syntax-ns#"
   xmlns:svg="http://www.w3.org/2000/svg"
   xmlns="http://www.w3.org/2000/svg"
   version="1.1"
   width="16"
   height="16"
   style="enable-background:new"
   id="svg7384">
  <metadata
     id="metadata90">
    <rdf:RDF>
      <cc:Work
         rdf:about="">
        <dc:format>image/svg+xml</dc:format>
        <dc:type
           rdf:resource="http://purl.org/dc/dcmitype/StillImage" />
        <dc:title>Paper Symbolic Icon Theme</dc:title>
      </cc:Work>
    </rdf:RDF>
  </metadata>
  <title
     id="title8473">Paper Symbolic Icon Theme</title>
  <defs
     id="defs7386">
    <style
       id="current-color-scheme"
       type="text/css">.ColorScheme-Text {
        color:#4d4d4d;
      }
      .ColorScheme-Background {
        color:#eff0f1;
      }
      .ColorScheme-Highlight {
        color:#3daee9;
      }
      .ColorScheme-ViewText {
        color:#31363b;
      }
      .ColorScheme-ViewBackground {
        color:#fcfcfc;
      }
      .ColorScheme-ViewHover {
        color:#93cee9;
      }
      .ColorScheme-ViewFocus{
        color:#3daee9;
      }
      .ColorScheme-ButtonText {
        color:#31363b;
      }
      .ColorScheme-ButtonBackground {
        color:#eff0f1;
      }
      .ColorScheme-ButtonHover {
        color:#93cee9;
      }
      .ColorScheme-ButtonFocus{
        color:#3daee9;
      }</style>
  </defs>
  <g
     transform="translate(-466 -224)"
     id="layer1">
    <path
       id="path5057-4"
       transform="translate(466,224)"
       d="M 2 1 C 2 1 1 1 1 2 L 1 13 C 1 13 1 14 2 14 L 10.064453 14 L 8.2929688 12.228516 A 1.0001 1.0001 0 0 1 8.2929688 10.814453 L 10.171875 8.9355469 L 11.121094 7.9863281 A 1.0001 1.0001 0 0 1 11.814453 7.6933594 A 1.0001 1.0001 0 0 1 12.535156 7.9863281 L 13.242188 8.6933594 A 1.0001 1.0001 0 0 1 13.318359 10.021484 L 14 10.021484 L 15 10.021484 L 15 4 C 15 3 14 3 14 3 L 9 3 L 7 1 L 2 1 z M 11.828125 8.6933594 L 10.878906 9.6425781 L 9 11.521484 L 10.878906 13.400391 L 11.828125 14.349609 L 12.535156 13.642578 L 11.585938 12.693359 L 10.914062 12.021484 L 13 12.021484 L 15 12.021484 L 15 11.021484 L 14 11.021484 L 13 11.021484 L 10.914062 11.021484 L 11.585938 10.349609 L 12.535156 9.4003906 L 11.828125 8.6933594 z M 13.318359 13.021484 A 1.0001 1.0001 0 0 1 13.466797 14 L 14 14 C 14 14 14.982118 13.997395 14.998047 13.021484 L 13.318359 13.021484 z "
       style="block-progression:tb;text-indent:0;color:#6e6e6e;enable-background:accumulate;text-transform:none;fill:#6e6e6e;fill-opacity:1;opacity:1" />
  </g>
  <text
     id="text3781"
     style="font-size:9px;line-height:125%;font-family:Sans;letter-spacing:0px;word-spacing:0px;fill:#6e6e6e"
     line-height="125%"
     font-size="9px"
     y="2.5684147"
     x="-7.0219979"
     xml:space="preserve"><tspan
       id="tspan3783"
       x="-7.0219979"
       y="2.5684147" /></text>
  <rect
     id="rect4035"
     style="color:#4d4d4d;fill:currentColor"
     transform="scale(-1,1)"
     height="11"
     width="0"
     y="9.9361515"
     x="-52.636082"
     class="ColorScheme-Text" />
  <rect
     id="rect4035-5"
     style="color:#4d4d4d;fill:currentColor"
     transform="scale(-1,1)"
     height="11"
     width="0"
     y="7.885149"
     x="-34.596104"
     class="ColorScheme-Text" />
  <rect
     id="rect4035-8"
     style="color:#4d4d4d;fill:currentColor"
     transform="scale(-1,1)"
     height="11"
     width="0"
     y="9.9361515"
     x="-52.636082"
     class="ColorScheme-Text" />
  <rect
     id="rect4035-59"
     style="color:#4d4d4d;fill:currentColor"
     transform="scale(-1,1)"
     height="11"
     width="0"
     y="9.9361515"
     x="-52.636082"
     class="ColorScheme-Text" />
  <text
     id="text3781-9"
     style="color:#4d4d4d;font-size:9px;line-height:125%;font-family:Sans;letter-spacing:0px;word-spacing:0px;fill:currentColor"
     line-height="125%"
     xml:space="preserve"
     transform="scale(-1,1)"
     font-size="9px"
     y="22.693422"
     x="-37.199802"
     class="ColorScheme-Text"><tspan
       id="tspan3783-5"
       y="22.693422"
       x="-37.199802" /></text>
  <text
     id="text3781-8"
     style="color:#4d4d4d;font-size:9px;line-height:125%;font-family:Sans;letter-spacing:0px;word-spacing:0px;fill:currentColor"
     line-height="125%"
     xml:space="preserve"
     transform="scale(-1,1)"
     font-size="9px"
     y="16.830118"
     x="-36.463108"
     class="ColorScheme-Text"><tspan
       id="tspan3783-1"
       y="16.830118"
       x="-36.463108" /></text>
  <text
     id="text3781-4"
     style="color:#4d4d4d;font-size:9px;line-height:125%;font-family:Sans;letter-spacing:0px;word-spacing:0px;fill:currentColor"
     line-height="125%"
     xml:space="preserve"
     transform="scale(-1,1)"
     font-size="9px"
     y="23.693453"
     x="-43.199802"
     class="ColorScheme-Text"><tspan
       id="tspan3783-13"
       y="23.693453"
       x="-43.199802" /></text>
  <rect
     id="rect4035-9"
     style="color:#4d4d4d;fill:currentColor"
     transform="scale(-1,1)"
     height="11"
     width="0"
     y="9.9361515"
     x="-52.636082"
     class="ColorScheme-Text" />
  <rect
     id="rect4035-5-7"
     style="color:#4d4d4d;fill:currentColor"
     transform="scale(-1,1)"
     height="11"
     width="0"
     y="7.885149"
     x="-34.596104"
     class="ColorScheme-Text" />
  <rect
     id="rect4035-9-0"
     style="color:#4d4d4d;fill:currentColor"
     transform="scale(-1,1)"
     height="11"
     width="0"
     y="9.9361515"
     x="-72.636086"
     class="ColorScheme-Text" />
  <rect
     id="rect4035-5-7-5"
     style="color:#4d4d4d;fill:currentColor"
     transform="scale(-1,1)"
     height="11"
     width="0"
     y="7.885149"
     x="-54.596104"
     class="ColorScheme-Text" />
  <rect
     id="rect4035-3"
     style="color:#4d4d4d;fill:currentColor"
     transform="scale(-1,1)"
     height="11"
     width="0"
     y="9.9361515"
     x="-52.636082"
     class="ColorScheme-Text" />
  <rect
     id="rect4035-5-4"
     style="color:#4d4d4d;fill:currentColor"
     transform="scale(-1,1)"
     height="11"
     width="0"
     y="7.885149"
     x="-34.596104"
     class="ColorScheme-Text" />
  <rect
     id="rect4035-8-7"
     style="color:#4d4d4d;fill:currentColor"
     transform="scale(-1,1)"
     height="11"
     width="0"
     y="9.9361515"
     x="-52.636082"
     class="ColorScheme-Text" />
  <rect
     id="rect4035-59-1"
     style="color:#4d4d4d;fill:currentColor"
     transform="scale(-1,1)"
     height="11"
     width="0"
     y="9.9361515"
     x="-52.636082"
     class="ColorScheme-Text" />
  <text
     id="text3781-1"
     style="color:#4d4d4d;font-size:9px;line-height:125%;font-family:Sans;letter-spacing:0px;word-spacing:0px;fill:currentColor"
     line-height="125%"
     xml:space="preserve"
     transform="scale(-1,1)"
     font-size="9px"
     y="22.693422"
     x="-37.199802"
     class="ColorScheme-Text"><tspan
       id="tspan3783-8"
       y="22.693422"
       x="-37.199802" /></text>
  <text
     id="text3781-8-2"
     style="color:#4d4d4d;font-size:9px;line-height:125%;font-family:Sans;letter-spacing:0px;word-spacing:0px;fill:currentColor"
     line-height="125%"
     xml:space="preserve"
     transform="scale(-1,1)"
     font-size="9px"
     y="16.830118"
     x="-36.463108"
     class="ColorScheme-Text"><tspan
       id="tspan3783-1-6"
       y="16.830118"
       x="-36.463108" /></text>
  <text
     id="text3781-4-7"
     style="color:#4d4d4d;font-size:9px;line-height:125%;font-family:Sans;letter-spacing:0px;word-spacing:0px;fill:currentColor"
     line-height="125%"
     xml:space="preserve"
     transform="scale(-1,1)"
     font-size="9px"
     y="23.693453"
     x="-43.199802"
     class="ColorScheme-Text"><tspan
       id="tspan3783-13-8"
       y="23.693453"
       x="-43.199802" /></text>
  <rect
     id="rect4035-9-08"
     style="color:#4d4d4d;fill:currentColor"
     transform="scale(-1,1)"
     height="11"
     width="0"
     y="9.9361515"
     x="-52.636082"
     class="ColorScheme-Text" />
  <rect
     id="rect4035-5-7-8"
     style="color:#4d4d4d;fill:currentColor"
     transform="scale(-1,1)"
     height="11"
     width="0"
     y="7.885149"
     x="-34.596104"
     class="ColorScheme-Text" />
  <rect
     id="rect4035-9-0-2"
     style="color:#4d4d4d;fill:currentColor"
     transform="scale(-1,1)"
     height="11"
     width="0"
     y="9.9361515"
     x="-72.636086"
     class="ColorScheme-Text" />
  <rect
     id="rect4035-5-7-5-2"
     style="color:#4d4d4d;fill:currentColor"
     transform="scale(-1,1)"
     height="11"
     width="0"
     y="7.885149"
     x="-54.596104"
     class="ColorScheme-Text" />
  <rect
     id="rect4035-2"
     style="color:#4d4d4d;fill:currentColor"
     transform="scale(-1,1)"
     height="11"
     width="0"
     y="11.91115"
     x="-56.866123"
     class="ColorScheme-Text" />
  <rect
     id="rect4035-5-0"
     style="color:#4d4d4d;fill:currentColor"
     transform="scale(-1,1)"
     height="11"
     width="0"
     y="9.8601475"
     x="-38.826084"
     class="ColorScheme-Text" />
  <rect
     id="rect4035-8-1"
     style="color:#4d4d4d;fill:currentColor"
     transform="scale(-1,1)"
     height="11"
     width="0"
     y="11.91115"
     x="-56.866123"
     class="ColorScheme-Text" />
  <rect
     id="rect4035-59-7"
     style="color:#4d4d4d;fill:currentColor"
     transform="scale(-1,1)"
     height="11"
     width="0"
     y="11.91115"
     x="-56.866123"
     class="ColorScheme-Text" />
  <text
     id="text3781-41"
     style="color:#4d4d4d;font-size:9px;line-height:125%;font-family:Sans;letter-spacing:0px;word-spacing:0px;fill:currentColor"
     line-height="125%"
     xml:space="preserve"
     transform="scale(-1,1)"
     font-size="9px"
     y="24.668398"
     x="-41.434177"
     class="ColorScheme-Text"><tspan
       id="tspan3783-9"
       y="24.668398"
       x="-41.434177" /></text>
  <text
     id="text3781-8-7"
     style="color:#4d4d4d;font-size:9px;line-height:125%;font-family:Sans;letter-spacing:0px;word-spacing:0px;fill:currentColor"
     line-height="125%"
     xml:space="preserve"
     transform="scale(-1,1)"
     font-size="9px"
     y="18.805094"
     x="-40.697483"
     class="ColorScheme-Text"><tspan
       id="tspan3783-1-2"
       y="18.805094"
       x="-40.697483" /></text>
  <text
     id="text3781-4-3"
     style="color:#4d4d4d;font-size:9px;line-height:125%;font-family:Sans;letter-spacing:0px;word-spacing:0px;fill:currentColor"
     line-height="125%"
     xml:space="preserve"
     transform="scale(-1,1)"
     font-size="9px"
     y="25.668428"
     x="-47.434177"
     class="ColorScheme-Text"><tspan
       id="tspan3783-13-6"
       y="25.668428"
       x="-47.434177" /></text>
  <rect
     id="rect4035-9-9"
     style="color:#4d4d4d;fill:currentColor"
     transform="scale(-1,1)"
     height="11"
     width="0"
     y="11.91115"
     x="-56.866123"
     class="ColorScheme-Text" />
  <rect
     id="rect4035-5-7-9"
     style="color:#4d4d4d;fill:currentColor"
     transform="scale(-1,1)"
     height="11"
     width="0"
     y="9.8601475"
     x="-38.826084"
     class="ColorScheme-Text" />
  <rect
     id="rect4035-9-0-5"
     style="color:#4d4d4d;fill:currentColor"
     transform="scale(-1,1)"
     height="11"
     width="0"
     y="11.91115"
     x="-76.866127"
     class="ColorScheme-Text" />
  <rect
     id="rect4035-5-7-5-3"
     style="color:#4d4d4d;fill:currentColor"
     transform="scale(-1,1)"
     height="11"
     width="0"
     y="9.8601475"
     x="-58.826084"
     class="ColorScheme-Text" />
</svg>
