<?xml version="1.0" encoding="UTF-8" standalone="no"?>
<svg
   xmlns:dc="http://purl.org/dc/elements/1.1/"
   xmlns:cc="http://creativecommons.org/ns#"
   xmlns:rdf="http://www.w3.org/1999/02/22-rdf-syntax-ns#"
   xmlns:svg="http://www.w3.org/2000/svg"
   xmlns="http://www.w3.org/2000/svg"
   version="1.1"
   width="16"
   height="16"
   style="enable-background:new"
   id="svg7384">
  <metadata
     id="metadata90">
    <rdf:RDF>
      <cc:Work
         rdf:about="">
        <dc:format>image/svg+xml</dc:format>
        <dc:type
           rdf:resource="http://purl.org/dc/dcmitype/StillImage" />
        <dc:title>Paper Symbolic Icon Theme</dc:title>
      </cc:Work>
    </rdf:RDF>
  </metadata>
  <title
     id="title8473">Paper Symbolic Icon Theme</title>
  <defs
     id="defs7386">
    <style
       id="current-color-scheme"
       type="text/css">.ColorScheme-Text {
        color:#4d4d4d;
      }
      .ColorScheme-Background {
        color:#eff0f1;
      }
      .ColorScheme-Highlight {
        color:#3daee9;
      }
      .ColorScheme-ViewText {
        color:#31363b;
      }
      .ColorScheme-ViewBackground {
        color:#fcfcfc;
      }
      .ColorScheme-ViewHover {
        color:#93cee9;
      }
      .ColorScheme-ViewFocus{
        color:#3daee9;
      }
      .ColorScheme-ButtonText {
        color:#31363b;
      }
      .ColorScheme-ButtonBackground {
        color:#eff0f1;
      }
      .ColorScheme-ButtonHover {
        color:#93cee9;
      }
      .ColorScheme-ButtonFocus{
        color:#3daee9;
      }</style>
  </defs>
  <g
     transform="translate(-466 -224)"
     id="layer1">
    <path
       id="path5057-4"
       transform="translate(466,224)"
       d="M 2 1 C 2 1 1 1 1 2 L 1 13 C 1 13 1 14 2 14 L 11.007812 14 L 11.007812 12.318359 A 1.0001 1.0001 0 0 1 9.6796875 12.242188 L 8.9726562 11.535156 A 1.0001 1.0001 0 0 1 8.9726562 10.121094 L 9.921875 9.171875 L 11.800781 7.2929688 A 1.0001 1.0001 0 0 1 12.494141 7 A 1.0001 1.0001 0 0 1 13.214844 7.2929688 L 15 9.078125 L 15 4 C 15 3 14 3 14 3 L 9 3 L 7 1 L 2 1 z M 12.507812 8 L 10.628906 9.8789062 L 9.6796875 10.828125 L 10.386719 11.535156 L 11.335938 10.585938 L 12.007812 9.9140625 L 12.007812 12 L 12.007812 14 L 13.007812 14 L 13.007812 13 L 13.007812 12 L 13.007812 9.9140625 L 13.679688 10.585938 L 14.628906 11.535156 L 15.335938 10.828125 L 14.386719 9.8789062 L 12.507812 8 z M 14.007812 12.318359 L 14.007812 13 L 14.007812 14 C 14.031956 13.999849 15 13.987624 15 13 L 15 12.460938 A 1.0001 1.0001 0 0 1 14.007812 12.318359 z "
       style="block-progression:tb;text-indent:0;color:#6e6e6e;enable-background:accumulate;text-transform:none;fill:#6e6e6e;fill-opacity:1;opacity:1" />
  </g>
  <text
     id="text3781"
     style="font-size:9px;line-height:125%;font-family:Sans;letter-spacing:0px;word-spacing:0px;fill:#6e6e6e"
     line-height="125%"
     font-size="9px"
     y="7.5562668"
     x="-12.988098"
     xml:space="preserve"><tspan
       id="tspan3783"
       x="-12.988098"
       y="7.5562668" /></text>
  <rect
     id="rect4035"
     style="color:#4d4d4d;fill:currentColor"
     transform="scale(-1,1)"
     height="11"
     width="0"
     y="14.924004"
     x="-46.669983"
     class="ColorScheme-Text" />
  <rect
     id="rect4035-5"
     style="color:#4d4d4d;fill:currentColor"
     transform="scale(-1,1)"
     height="11"
     width="0"
     y="12.873001"
     x="-28.630005"
     class="ColorScheme-Text" />
  <rect
     id="rect4035-8"
     style="color:#4d4d4d;fill:currentColor"
     transform="scale(-1,1)"
     height="11"
     width="0"
     y="14.924004"
     x="-46.669983"
     class="ColorScheme-Text" />
  <rect
     id="rect4035-59"
     style="color:#4d4d4d;fill:currentColor"
     transform="scale(-1,1)"
     height="11"
     width="0"
     y="14.924004"
     x="-46.669983"
     class="ColorScheme-Text" />
  <text
     id="text3781-9"
     style="color:#4d4d4d;font-size:9px;line-height:125%;font-family:Sans;letter-spacing:0px;word-spacing:0px;fill:currentColor"
     line-height="125%"
     xml:space="preserve"
     transform="scale(-1,1)"
     font-size="9px"
     y="27.681274"
     x="-31.233704"
     class="ColorScheme-Text"><tspan
       id="tspan3783-5"
       y="27.681274"
       x="-31.233704" /></text>
  <text
     id="text3781-8"
     style="color:#4d4d4d;font-size:9px;line-height:125%;font-family:Sans;letter-spacing:0px;word-spacing:0px;fill:currentColor"
     line-height="125%"
     xml:space="preserve"
     transform="scale(-1,1)"
     font-size="9px"
     y="21.81797"
     x="-30.497009"
     class="ColorScheme-Text"><tspan
       id="tspan3783-1"
       y="21.81797"
       x="-30.497009" /></text>
  <text
     id="text3781-4"
     style="color:#4d4d4d;font-size:9px;line-height:125%;font-family:Sans;letter-spacing:0px;word-spacing:0px;fill:currentColor"
     line-height="125%"
     xml:space="preserve"
     transform="scale(-1,1)"
     font-size="9px"
     y="28.681305"
     x="-37.233704"
     class="ColorScheme-Text"><tspan
       id="tspan3783-13"
       y="28.681305"
       x="-37.233704" /></text>
  <rect
     id="rect4035-9"
     style="color:#4d4d4d;fill:currentColor"
     transform="scale(-1,1)"
     height="11"
     width="0"
     y="14.924004"
     x="-46.669983"
     class="ColorScheme-Text" />
  <rect
     id="rect4035-5-7"
     style="color:#4d4d4d;fill:currentColor"
     transform="scale(-1,1)"
     height="11"
     width="0"
     y="12.873001"
     x="-28.630005"
     class="ColorScheme-Text" />
  <rect
     id="rect4035-9-0"
     style="color:#4d4d4d;fill:currentColor"
     transform="scale(-1,1)"
     height="11"
     width="0"
     y="14.924004"
     x="-66.669983"
     class="ColorScheme-Text" />
  <rect
     id="rect4035-5-7-5"
     style="color:#4d4d4d;fill:currentColor"
     transform="scale(-1,1)"
     height="11"
     width="0"
     y="12.873001"
     x="-48.630005"
     class="ColorScheme-Text" />
  <rect
     id="rect4035-3"
     style="color:#4d4d4d;fill:currentColor"
     transform="scale(-1,1)"
     height="11"
     width="0"
     y="14.924004"
     x="-46.669983"
     class="ColorScheme-Text" />
  <rect
     id="rect4035-5-4"
     style="color:#4d4d4d;fill:currentColor"
     transform="scale(-1,1)"
     height="11"
     width="0"
     y="12.873001"
     x="-28.630005"
     class="ColorScheme-Text" />
  <rect
     id="rect4035-8-7"
     style="color:#4d4d4d;fill:currentColor"
     transform="scale(-1,1)"
     height="11"
     width="0"
     y="14.924004"
     x="-46.669983"
     class="ColorScheme-Text" />
  <rect
     id="rect4035-59-1"
     style="color:#4d4d4d;fill:currentColor"
     transform="scale(-1,1)"
     height="11"
     width="0"
     y="14.924004"
     x="-46.669983"
     class="ColorScheme-Text" />
  <text
     id="text3781-1"
     style="color:#4d4d4d;font-size:9px;line-height:125%;font-family:Sans;letter-spacing:0px;word-spacing:0px;fill:currentColor"
     line-height="125%"
     xml:space="preserve"
     transform="scale(-1,1)"
     font-size="9px"
     y="27.681274"
     x="-31.233704"
     class="ColorScheme-Text"><tspan
       id="tspan3783-8"
       y="27.681274"
       x="-31.233704" /></text>
  <text
     id="text3781-8-2"
     style="color:#4d4d4d;font-size:9px;line-height:125%;font-family:Sans;letter-spacing:0px;word-spacing:0px;fill:currentColor"
     line-height="125%"
     xml:space="preserve"
     transform="scale(-1,1)"
     font-size="9px"
     y="21.81797"
     x="-30.497009"
     class="ColorScheme-Text"><tspan
       id="tspan3783-1-6"
       y="21.81797"
       x="-30.497009" /></text>
  <text
     id="text3781-4-7"
     style="color:#4d4d4d;font-size:9px;line-height:125%;font-family:Sans;letter-spacing:0px;word-spacing:0px;fill:currentColor"
     line-height="125%"
     xml:space="preserve"
     transform="scale(-1,1)"
     font-size="9px"
     y="28.681305"
     x="-37.233704"
     class="ColorScheme-Text"><tspan
       id="tspan3783-13-8"
       y="28.681305"
       x="-37.233704" /></text>
  <rect
     id="rect4035-9-08"
     style="color:#4d4d4d;fill:currentColor"
     transform="scale(-1,1)"
     height="11"
     width="0"
     y="14.924004"
     x="-46.669983"
     class="ColorScheme-Text" />
  <rect
     id="rect4035-5-7-8"
     style="color:#4d4d4d;fill:currentColor"
     transform="scale(-1,1)"
     height="11"
     width="0"
     y="12.873001"
     x="-28.630005"
     class="ColorScheme-Text" />
  <rect
     id="rect4035-9-0-2"
     style="color:#4d4d4d;fill:currentColor"
     transform="scale(-1,1)"
     height="11"
     width="0"
     y="14.924004"
     x="-66.669983"
     class="ColorScheme-Text" />
  <rect
     id="rect4035-5-7-5-2"
     style="color:#4d4d4d;fill:currentColor"
     transform="scale(-1,1)"
     height="11"
     width="0"
     y="12.873001"
     x="-48.630005"
     class="ColorScheme-Text" />
  <rect
     id="rect4035-2"
     style="color:#4d4d4d;fill:currentColor"
     transform="scale(-1,1)"
     height="11"
     width="0"
     y="16.899002"
     x="-50.900024"
     class="ColorScheme-Text" />
  <rect
     id="rect4035-5-0"
     style="color:#4d4d4d;fill:currentColor"
     transform="scale(-1,1)"
     height="11"
     width="0"
     y="14.848"
     x="-32.859985"
     class="ColorScheme-Text" />
  <rect
     id="rect4035-8-1"
     style="color:#4d4d4d;fill:currentColor"
     transform="scale(-1,1)"
     height="11"
     width="0"
     y="16.899002"
     x="-50.900024"
     class="ColorScheme-Text" />
  <rect
     id="rect4035-59-7"
     style="color:#4d4d4d;fill:currentColor"
     transform="scale(-1,1)"
     height="11"
     width="0"
     y="16.899002"
     x="-50.900024"
     class="ColorScheme-Text" />
  <text
     id="text3781-41"
     style="color:#4d4d4d;font-size:9px;line-height:125%;font-family:Sans;letter-spacing:0px;word-spacing:0px;fill:currentColor"
     line-height="125%"
     xml:space="preserve"
     transform="scale(-1,1)"
     font-size="9px"
     y="29.65625"
     x="-35.468079"
     class="ColorScheme-Text"><tspan
       id="tspan3783-9"
       y="29.65625"
       x="-35.468079" /></text>
  <text
     id="text3781-8-7"
     style="color:#4d4d4d;font-size:9px;line-height:125%;font-family:Sans;letter-spacing:0px;word-spacing:0px;fill:currentColor"
     line-height="125%"
     xml:space="preserve"
     transform="scale(-1,1)"
     font-size="9px"
     y="23.792946"
     x="-34.731384"
     class="ColorScheme-Text"><tspan
       id="tspan3783-1-2"
       y="23.792946"
       x="-34.731384" /></text>
  <text
     id="text3781-4-3"
     style="color:#4d4d4d;font-size:9px;line-height:125%;font-family:Sans;letter-spacing:0px;word-spacing:0px;fill:currentColor"
     line-height="125%"
     xml:space="preserve"
     transform="scale(-1,1)"
     font-size="9px"
     y="30.656281"
     x="-41.468079"
     class="ColorScheme-Text"><tspan
       id="tspan3783-13-6"
       y="30.656281"
       x="-41.468079" /></text>
  <rect
     id="rect4035-9-9"
     style="color:#4d4d4d;fill:currentColor"
     transform="scale(-1,1)"
     height="11"
     width="0"
     y="16.899002"
     x="-50.900024"
     class="ColorScheme-Text" />
  <rect
     id="rect4035-5-7-9"
     style="color:#4d4d4d;fill:currentColor"
     transform="scale(-1,1)"
     height="11"
     width="0"
     y="14.848"
     x="-32.859985"
     class="ColorScheme-Text" />
  <rect
     id="rect4035-9-0-5"
     style="color:#4d4d4d;fill:currentColor"
     transform="scale(-1,1)"
     height="11"
     width="0"
     y="16.899002"
     x="-70.900024"
     class="ColorScheme-Text" />
  <rect
     id="rect4035-5-7-5-3"
     style="color:#4d4d4d;fill:currentColor"
     transform="scale(-1,1)"
     height="11"
     width="0"
     y="14.848"
     x="-52.859985"
     class="ColorScheme-Text" />
</svg>
