<?xml version="1.0" encoding="UTF-8" standalone="no"?>
<svg
   xmlns:dc="http://purl.org/dc/elements/1.1/"
   xmlns:cc="http://creativecommons.org/ns#"
   xmlns:rdf="http://www.w3.org/1999/02/22-rdf-syntax-ns#"
   xmlns:svg="http://www.w3.org/2000/svg"
   xmlns="http://www.w3.org/2000/svg"
   id="svg7384"
   style="enable-background:new"
   height="16"
   width="16"
   version="1.1">
  <metadata
     id="metadata90">
    <rdf:RDF>
      <cc:Work
         rdf:about="">
        <dc:format>image/svg+xml</dc:format>
        <dc:type
           rdf:resource="http://purl.org/dc/dcmitype/StillImage" />
        <dc:title>Paper Symbolic Icon Theme</dc:title>
      </cc:Work>
    </rdf:RDF>
  </metadata>
  <title
     id="title8473">Paper Symbolic Icon Theme</title>
  <defs
     id="defs7386">
    <filter
       id="filter7554"
       color-interpolation-filters="sRGB">
      <feBlend
         id="feBlend7556"
         in2="BackgroundImage"
         mode="darken" />
    </filter>
  </defs>
  <path
     d="M 8,1 C 5.784,1 4,2.8216 4,5.0625 L 4,7 3,7 C 2.446,7 2,7.446 2,8 l 0,6 c 0,0.554 0.446,1 1,1 l 10,0 c 0.554,0 1,-0.446 1,-1 L 14,8 C 14,7.446 13.554,7 13,7 L 12,7 12,5.0625 C 12,2.8225 10.216,1 8,1 Z m 0,2 c 1.108,0 2,0.892 2,2 L 10,7 6,7 6,5 C 6,3.892 6.892,3 8,3 Z"
     style="color:#d3dae3;opacity:1;enable-background:accumulate;fill:#d3dae3;fill-opacity:1"
     id="path5975" />
</svg>
