<?xml version="1.0" encoding="UTF-8" standalone="no"?>
<svg
   xmlns:dc="http://purl.org/dc/elements/1.1/"
   xmlns:cc="http://creativecommons.org/ns#"
   xmlns:rdf="http://www.w3.org/1999/02/22-rdf-syntax-ns#"
   xmlns:svg="http://www.w3.org/2000/svg"
   xmlns="http://www.w3.org/2000/svg"
   id="svg7384"
   style="enable-background:new"
   height="16"
   width="16"
   version="1.1">
  <defs
     id="defs9" />
  <metadata
     id="metadata90">
    <rdf:RDF>
      <cc:Work
         rdf:about="">
        <dc:format>image/svg+xml</dc:format>
        <dc:type
           rdf:resource="http://purl.org/dc/dcmitype/StillImage" />
        <dc:title>Paper Symbolic Icon Theme</dc:title>
      </cc:Work>
    </rdf:RDF>
  </metadata>
  <title
     id="title8473">Paper Symbolic Icon Theme</title>
  <path
     d="m 8,1.016 c -3.866,0 -7,3.134 -7,7 0,3.866 3.134,7 7,7 3.1748,0 5.8615,-2.1032 6.7188,-5 l -2.1562,0 c -0.77427,1.7595 -2.5168,3 -4.5625,3 -2.7614,0 -5,-2.2386 -5,-5 0,-2.7614 2.2386,-5 5,-5 1.3816,0 2.6155,0.57505 3.5156,1.4844 l -2.51,2.516 6,0 0,-6 -2.0527,2.0527 c -1.27,-1.265 -3.02,-2.053 -4.95,-2.053 z"
     id="path5865"
     style="opacity:1;fill:#d3dae3;fill-opacity:1" />
</svg>
