<svg xmlns="http://www.w3.org/2000/svg" width="16" height="16" version="1.1">
 <path style="fill:#5c616c" d="M 6.25,1 6.0957,2.8438 A 5.5,5.5 0 0 0 4.4883,3.77349 L 2.8125,2.98443 1.0625,6.01563 2.584,7.07223 A 5.5,5.5 0 0 0 2.5,7.99996 5.5,5.5 0 0 0 2.5801,8.9316 l -1.5176,1.0527 1.75,3.0312 1.6719,-0.7871 a 5.5,5.5 0 0 0 1.6113,0.92382 l 0.15,1.85 3.5,0 0.1543,-1.8438 a 5.5,5.5 0 0 0 1.6074,-0.92969 l 1.6758,0.78906 1.75,-3.0312 -1.5215,-1.0566 a 5.5,5.5 0 0 0 0.084,-0.92773 5.5,5.5 0 0 0 -0.0801,-0.93164 l 1.5176,-1.0527 -1.75,-3.0312 -1.6719,0.7871 A 5.5,5.5 0 0 0 9.9,2.85 L 9.75,1 6.25,1 Z M 8,6 A 2,2 0 0 1 10,8 2,2 0 0 1 8,10 2,2 0 0 1 6,8 2,2 0 0 1 8,6 Z"/>
</svg>
