<svg xmlns="http://www.w3.org/2000/svg" width="16" height="16" version="1.1">
 <path style="fill:#444444" d="m 10.78,1 0.3125,0.28125 3.625,3.625 0.28125,0.3125 0,0.40625 0,4.75 0,0.40625 -0.28125,0.3125 -3.625,3.625 L 10.78,15 l -0.40625,0 -4.75,0 -0.40625,0 -0.3125,-0.28125 -3.625,-3.625 -0.28125,-0.3125 0,-0.40625 0,-4.75 0,-0.40625 L 1.28,4.90625 4.905,1.28125 5.2175,1 l 0.40625,0 4.75,0 0.40625,0 z m -0.78125,2 -4,0 -3,3 0,4 3,3 4,0 3,-3 0,-4 -3,-3 z m -0.4375,1 2.4375,2.4375 0,3.125 -2.4375,2.4375 -3.125,0 -2.4375,-2.4375 0,-3.125 L 6.43625,4 l 3.125,0 z"/>
</svg>
