<svg xmlns="http://www.w3.org/2000/svg" width="16" height="16" version="1.1">
 <path style="fill:#444444" d="M 3.5,1 C 2.131,1 1,2.1312 1,3.5 L 1,3.502 C 1.001,4.2648 1.4294,4.8839 2,5.3496 L 2,9 2,11 c 0,1.645 1.3548,3 3,3 -2e-4,0.564 0.4656,1.016 1.0293,1 0.2061,-0.006 0.4053,-0.076 0.5703,-0.199 l 2,-1.5 c 0.533,-0.4 0.533,-1.2 0,-1.6 l -2,-1.5 C 5.9458,9.7114 5.0125,10.17 5,10.986 L 5,9 5,5.3496 C 5.5709,4.8839 5.9989,4.265 6,3.502 L 6,3.5 C 6,2.1312 4.869,1 3.5,1 Z M 9.9707,1 C 9.7646,1.006 9.5654,1.0756 9.4004,1.1992 l -2,1.5 c -0.533,0.4001 -0.533,1.1996 0,1.5996 l 2,1.5 C 10.054,6.2886 10.988,5.8304 11,5.0137 L 11,7 l 0,3.65 c -0.571,0.466 -0.999,1.085 -1,1.848 l 0,0.002 c 0,1.369 1.131,2.5 2.5,2.5 1.369,0 2.5,-1.131 2.5,-2.5 l 0,-0.002 C 14.999,11.735 14.571,11.116 14,10.65 L 14,7 14,5 C 14,3.355 12.645,2 11,2 11,1.4361 10.534,0.9835 9.9707,1 Z"/>
</svg>
