<svg xmlns="http://www.w3.org/2000/svg" width="16" height="16" version="1.1">
 <path d="m 6.49,0.997 c 3.0288,0 5.5312,2.4746 5.5312,5.5 0,1.1499 -0.38921,2.2078 -1,3.0938 l 3.6875,3.6875 a 1.0055,1.0055 0 1 1 -1.4062,1.4375 L 9.615,11.0283 c -0.88729,0.61091 -1.973,0.96875 -3.125,0.96875 -3.0289,0 -5.5,-2.4746 -5.5,-5.5 0,-3.0254 2.4711,-5.5 5.5,-5.5 z m 0,2 c -1.9474,0 -3.5,1.5548 -3.5,3.5 0,1.9451 1.5526,3.5 3.5,3.5 1.9474,0 3.5,-1.5549 3.5,-3.5 0,-1.9452 -1.5526,-3.5 -3.5,-3.5 z" style="fill:#5c616c"/>
</svg>
