<?xml version="1.0" encoding="UTF-8" standalone="no"?>
<svg
   xmlns:dc="http://purl.org/dc/elements/1.1/"
   xmlns:cc="http://creativecommons.org/ns#"
   xmlns:rdf="http://www.w3.org/1999/02/22-rdf-syntax-ns#"
   xmlns:svg="http://www.w3.org/2000/svg"
   xmlns="http://www.w3.org/2000/svg"
   id="svg7384"
   style="enable-background:new"
   height="16"
   width="16"
   version="1.1">
  <defs
     id="defs9" />
  <metadata
     id="metadata90">
    <rdf:RDF>
      <cc:Work
         rdf:about="">
        <dc:format>image/svg+xml</dc:format>
        <dc:type
           rdf:resource="http://purl.org/dc/dcmitype/StillImage" />
        <dc:title>Paper Symbolic Icon Theme</dc:title>
      </cc:Work>
    </rdf:RDF>
  </metadata>
  <title
     id="title8473">Paper Symbolic Icon Theme</title>
  <path
     d="m 6.49,0.997 c 3.0288,0 5.5312,2.4746 5.5312,5.5 0,1.1499 -0.38921,2.2078 -1,3.0938 l 3.6875,3.6875 a 1.0055,1.0055 0 1 1 -1.4062,1.4375 L 9.615,11.0283 c -0.88729,0.61091 -1.973,0.96875 -3.125,0.96875 -3.0289,0 -5.5,-2.4746 -5.5,-5.5 0,-3.0254 2.4711,-5.5 5.5,-5.5 z m 0,2 c -1.9474,0 -3.5,1.5548 -3.5,3.5 0,1.9451 1.5526,3.5 3.5,3.5 1.9474,0 3.5,-1.5549 3.5,-3.5 0,-1.9452 -1.5526,-3.5 -3.5,-3.5 z"
     style="color:#000000;text-indent:0;text-decoration:none;text-decoration-line:none;text-transform:none;block-progression:tb;opacity:0.5;fill:#000000;fill-opacity:1;enable-background:new"
     id="path6876" />
</svg>
