<svg xmlns="http://www.w3.org/2000/svg" width="16" height="16" version="1.1">
 <path style="fill:#444444" d="M 2,1 C 2,1 1,1 1,2 V 13 C 1,13 1,14 2,14 H 11.008 V 12.318 C 10.61,12.634 10.039,12.601 9.6797,12.242 L 8.9727,11.535 C 8.5824,11.144 8.5824,10.512 8.9727,10.121 L 11.801,7.293 C 11.985,7.1089 12.234,7.0037 12.494,7 12.764,6.9963 13.024,7.102 13.215,7.293 L 15,9.0781 V 4 C 15,3 14,3 14,3 H 9 L 7,1 Z M 12.5,8 9.6797,10.828 10.387,11.535 12,9.9141 V 14 H 13 V 9.9141 L 14.629,11.535 15.336,10.828 Z M 14.008,12.318 V 14 C 14.032,14 15,13.988 15,13 V 12.461 C 14.668,12.594 14.289,12.54 14.008,12.318 Z"/>
</svg>
