<svg xmlns="http://www.w3.org/2000/svg" width="16" height="16" version="1.1">
 <path d="M 2,1 C 2,1 1,1 1,2 V 13 C 1,13 1,14 2,14 H 10.064 L 8.293,12.229 C 7.902,11.838 7.902,11.205 8.293,10.814 L 11.121,7.9863 C 11.305,7.8022 11.554,7.6971 11.814,7.6934 12.084,7.6897 12.344,7.7953 12.535,7.9863 L 13.242,8.6934 C 13.6,9.0526 13.633,9.6233 13.318,10.021 H 15 V 4 C 15,3 14,3 14,3 H 9 L 7,1 Z M 11.828,8.6934 9,11.521 11.828,14.35 12.535,13.643 10.914,12.021 H 13 15 V 11.021 H 10.914 L 12.535,9.4004 Z M 13.318,13.021 C 13.537,13.298 13.594,13.67 13.467,14 H 14 C 14,14 14.982,13.997 14.998,13.021 Z" style="fill:#5c616c"/>
</svg>
