<?xml version="1.0" encoding="UTF-8" standalone="no"?>
<svg
   xmlns:dc="http://purl.org/dc/elements/1.1/"
   xmlns:cc="http://creativecommons.org/ns#"
   xmlns:rdf="http://www.w3.org/1999/02/22-rdf-syntax-ns#"
   xmlns:svg="http://www.w3.org/2000/svg"
   xmlns="http://www.w3.org/2000/svg"
   id="svg7384"
   style="enable-background:new"
   height="16"
   width="16"
   version="1.1">
  <metadata
     id="metadata90">
    <rdf:RDF>
      <cc:Work
         rdf:about="">
        <dc:format>image/svg+xml</dc:format>
        <dc:type
           rdf:resource="http://purl.org/dc/dcmitype/StillImage" />
        <dc:title>Paper Symbolic Icon Theme</dc:title>
      </cc:Work>
    </rdf:RDF>
  </metadata>
  <title
     id="title8473">Paper Symbolic Icon Theme</title>
  <defs
     id="defs7386">
    <filter
       id="filter7554"
       style="color-interpolation-filters:sRGB">
      <feBlend
         id="feBlend7556"
         in2="BackgroundImage"
         mode="darken" />
    </filter>
  </defs>
  <path
     d="m 9,15 -2,0 0,-2 2,0 z m 2.07,-7.75 -0.9,0.92 C 9.45,8.9 9,9.5 9,11 L 7,11 7,10.5 C 7,9.4 7.45,8.4 8.17,7.67 L 9.41,6.41 C 9.78,6.05 10,5.55 10,5 10,3.9 9.1,3 8,3 6.9,3 6,3.9 6,5 L 4,5 C 4,2.79 5.79,1 8,1 c 2.21,0 4,1.79 4,4 0,0.88 -0.36,1.68 -0.93,2.25 z"
     style="opacity:0.5;enable-background:new;fill:#000000;fill-opacity:1"
     id="path4-7-8" />
</svg>
