<?xml version="1.0" encoding="UTF-8" standalone="no"?>
<svg
   xmlns:dc="http://purl.org/dc/elements/1.1/"
   xmlns:cc="http://creativecommons.org/ns#"
   xmlns:rdf="http://www.w3.org/1999/02/22-rdf-syntax-ns#"
   xmlns:svg="http://www.w3.org/2000/svg"
   xmlns="http://www.w3.org/2000/svg"
   id="svg7384"
   style="enable-background:new"
   height="16"
   width="16"
   version="1.1">
  <defs
     id="defs9" />
  <metadata
     id="metadata90">
    <rdf:RDF>
      <cc:Work
         rdf:about="">
        <dc:format>image/svg+xml</dc:format>
        <dc:type
           rdf:resource="http://purl.org/dc/dcmitype/StillImage" />
        <dc:title>Paper Symbolic Icon Theme</dc:title>
      </cc:Work>
    </rdf:RDF>
  </metadata>
  <title
     id="title8473">Paper Symbolic Icon Theme</title>
  <path
     d="M 10,2 10,14 9,14 9,2 Z m 4,1 0,1 -2,0 0,-1 z M 7,3 7,5 5,5 5,3 Z M 3,3 3,5 1,5 1,3 Z m 11,3 0,1 -2,0 0,-1 z M 7,7 7,9 5,9 5,7 Z M 3,7 3,9 1,9 1,7 Z m 11,2 0,1 -2,0 0,-1 z m -7,2 0,2 -2,0 0,-2 z m -4,0 0,2 -2,0 0,-2 z m 11,1 0,1 -2,0 0,-1 z"
     style="color:#bebebe;opacity:0.5;fill:#000000;fill-opacity:1"
     id="path5977" />
</svg>
