<svg xmlns="http://www.w3.org/2000/svg" width="16" height="16" version="1.1">
 <path d="M 8,3.0001 C 6.4492,3.0152 4.8879,3.3694 3.5371,4.1349 2.9987,4.4855 2.3523,4.9384 1.8652,5.3947 1.0987,6.1451 0.4427,7.0207 0,8.0002 1.2149,10.68 3.8859,12.644 6.8242,12.934 8.7516,13.152 10.769,12.819 12.463,11.865 13.001,11.515 13.648,11.062 14.135,10.606 14.901,9.8552 15.557,8.9796 16,8.0001 14.785,5.3207 12.114,3.3563 9.1758,3.0665 8.7859,3.021 8.3925,3.0001 8,3.0001 Z M 8,5.0001 C 9.607,4.9645 11.03,6.4019 11,8.0001 11.052,9.7665 9.291,11.291 7.5508,10.961 5.7932,10.755 4.5587,8.7832 5.1367,7.1133 5.5059,5.8839 6.7125,4.9847 8,5 Z M 8,7.0001 A 1,1 0 0 0 7,8.0001 1,1 0 0 0 8,9.0001 1,1 0 0 0 9,8.0001 1,1 0 0 0 8,7.0001 Z" style="fill:#5c616c"/>
</svg>
