<?xml version="1.0" encoding="UTF-8" standalone="no"?>
<svg
   xmlns:dc="http://purl.org/dc/elements/1.1/"
   xmlns:cc="http://creativecommons.org/ns#"
   xmlns:rdf="http://www.w3.org/1999/02/22-rdf-syntax-ns#"
   xmlns:svg="http://www.w3.org/2000/svg"
   xmlns="http://www.w3.org/2000/svg"
   id="svg7384"
   style="enable-background:new"
   height="16"
   width="16"
   version="1.1">
  <defs
     id="defs19" />
  <metadata
     id="metadata90">
    <rdf:RDF>
      <cc:Work
         rdf:about="">
        <dc:format>image/svg+xml</dc:format>
        <dc:type
           rdf:resource="http://purl.org/dc/dcmitype/StillImage" />
        <dc:title>Paper Symbolic Icon Theme</dc:title>
      </cc:Work>
    </rdf:RDF>
  </metadata>
  <title
     id="title8473">Paper Symbolic Icon Theme</title>
  <path
     id="path4190"
     d="M 8.7792969 1.9980469 C 8.7277409 1.9924969 8.6764838 2.0079068 8.6367188 2.0429688 C 8.5969538 2.0780587 8.5733274 2.1286043 8.5683594 2.1835938 L 8.3417969 4.6699219 C 8.3314439 4.7843281 8.4108326 4.8873668 8.5175781 4.8984375 C 9.135936 4.9626475 9.7312281 5.1414298 10.289062 5.4296875 C 10.315603 5.4434205 10.34606 5.4492188 10.375 5.4492188 C 10.39659 5.4492188 10.41669 5.445259 10.4375 5.4375 C 10.4861 5.41931 10.526477 5.3817515 10.548828 5.3320312 L 11.560547 3.0820312 C 11.607157 2.9784995 11.567363 2.8545756 11.470703 2.8046875 C 10.623376 2.3669057 9.7173437 2.0955248 8.7792969 1.9980469 z M 6.9160156 2.0351562 C 5.9824656 2.170891 5.0877876 2.4800572 4.2558594 2.953125 C 4.1611397 3.0069929 4.1255847 3.1327771 4.1757812 3.234375 L 5.2675781 5.4414062 C 5.3024541 5.5118943 5.3698839 5.5507812 5.4394531 5.5507812 C 5.4701461 5.5507812 5.5003299 5.5438228 5.5292969 5.5273438 C 6.0773276 5.2157672 6.6665262 5.0132342 7.28125 4.9238281 C 7.3874993 4.9083852 7.4616709 4.8033828 7.4472656 4.6894531 L 7.1347656 2.2128906 C 7.1203602 2.0989889 7.0220034 2.0198254 6.9160156 2.0351562 z M 12.902344 3.8320312 C 12.851124 3.8377212 12.803954 3.8653781 12.771484 3.9082031 L 11.300781 5.8457031 C 11.268311 5.8885561 11.254456 5.9431418 11.259766 5.9980469 C 11.265066 6.0529519 11.290108 6.1038064 11.330078 6.1386719 C 11.812958 6.5596095 12.218414 7.0612299 12.537109 7.6328125 C 12.573499 7.6980035 12.638986 7.734375 12.705078 7.734375 C 12.738988 7.734375 12.773497 7.7250881 12.804688 7.7050781 L 14.804688 6.4238281 C 14.848847 6.3954931 14.879978 6.3504342 14.892578 6.296875 C 14.905128 6.243315 14.897544 6.1860936 14.871094 6.1386719 C 14.389208 5.2744594 13.774732 4.5132501 13.044922 3.8769531 C 13.004952 3.8421431 12.953771 3.8265102 12.902344 3.8320312 z M 2.8613281 4.0390625 C 2.8096937 4.0355311 2.7593701 4.0534086 2.7207031 4.0898438 C 2.0138478 4.7559334 1.4269452 5.5406693 0.9765625 6.4238281 C 0.9518826 6.4722871 0.9464537 6.5310414 0.9609375 6.5839844 C 0.9754213 6.6369554 1.0075315 6.6805737 1.0527344 6.7070312 L 3.0976562 7.90625 C 3.1272252 7.923599 3.1599032 7.9316406 3.1914062 7.9316406 C 3.2600863 7.9316406 3.3260598 7.891436 3.3613281 7.8222656 C 3.6590037 7.2385192 4.0480396 6.7199094 4.515625 6.2792969 C 4.55437 6.2429179 4.5768101 6.1918475 4.5800781 6.1367188 C 4.5833984 6.0816457 4.5671903 6.0258269 4.5332031 5.984375 L 2.9941406 4.109375 C 2.9601534 4.0679231 2.9127533 4.042622 2.8613281 4.0390625 z M 15.392578 7.8300781 L 13.167969 8.5761719 C 13.065616 8.6105329 13.008963 8.728221 13.041016 8.8378906 C 13.200599 9.3840248 13.28125 9.9543055 13.28125 10.533203 C 13.28125 10.618433 13.279391 10.705218 13.275391 10.798828 C 13.272991 10.853958 13.291452 10.908439 13.326172 10.949219 C 13.360862 10.990029 13.409516 11.015048 13.460938 11.017578 L 15.789062 11.132812 C 15.792162 11.132953 15.793775 11.132812 15.796875 11.132812 C 15.899987 11.132812 15.985372 11.045139 15.990234 10.933594 C 15.996234 10.79472 16 10.663725 16 10.533203 C 15.999947 9.6583684 15.876911 8.7951349 15.634766 7.9667969 C 15.602661 7.8570712 15.494828 7.7956329 15.392578 7.8300781 z M 4.6132812 8.0703125 C 4.5710423 8.0755746 4.530387 8.0956522 4.4980469 8.1289062 C 4.4333144 8.1953582 4.418741 8.300068 4.4609375 8.3847656 L 6.1816406 11.841797 C 6.1753106 11.908387 6.171875 11.977097 6.171875 12.044922 C 6.171875 12.566449 6.3611015 13.055077 6.7050781 13.423828 C 7.0490809 13.792608 7.5056999 13.996094 7.9921875 13.996094 C 8.478675 13.996094 8.9372734 13.792552 9.28125 13.423828 C 9.6252528 13.055077 9.8144531 12.566449 9.8144531 12.044922 C 9.8144531 11.523396 9.6252266 11.032815 9.28125 10.664062 C 8.9377364 10.295807 8.4798698 10.092342 7.9941406 10.091797 L 7.9921875 10.091797 C 7.9593472 10.091842 7.9251173 10.091887 7.8925781 10.09375 L 4.7382812 8.0996094 C 4.6996796 8.0751558 4.6555202 8.0650504 4.6132812 8.0703125 z M 0.51757812 8.1367188 C 0.46787839 8.1223129 0.41382072 8.1287836 0.36914062 8.15625 C 0.32446052 8.1837165 0.29281332 8.2299238 0.27929688 8.2832031 C 0.094484935 9.013867 0 9.7705886 0 10.533203 C 0 10.663725 0.003726355 10.79472 0.009765625 10.933594 C 0.014602265 11.045169 0.09996078 11.132812 0.203125 11.132812 C 0.206158 11.132812 0.20985863 11.13298 0.21289062 11.132812 L 2.5390625 11.017578 C 2.5904875 11.015078 2.6391872 10.989989 2.6738281 10.949219 C 2.7085211 10.908439 2.7270144 10.853959 2.7246094 10.798828 C 2.7205594 10.705188 2.71875 10.618405 2.71875 10.533203 C 2.71875 10.028157 2.7804086 9.5287432 2.9023438 9.046875 C 2.9303438 8.9359441 2.8691026 8.8211447 2.765625 8.7910156 L 0.51757812 8.1367188 z "
     style="fill:#000000;fill-opacity:1;opacity:0.5" />
</svg>
